<svg xmlns="http://www.w3.org/2000/svg" xmlns:xlink="http://www.w3.org/1999/xlink" width="500" zoomAndPan="magnify" viewBox="0 0 375 374.999991" height="500" preserveAspectRatio="xMidYMid meet" version="1.0"><rect x="-37.5" width="450" fill="#ffffff" y="-37.499999" height="449.999989" fill-opacity="1"/><rect x="-37.5" width="450" fill="#ffffff" y="-37.499999" height="449.999989" fill-opacity="1"/><rect x="-37.5" width="450" fill="#ffffff" y="-37.499999" height="449.999989" fill-opacity="1"/><path fill="#26b59b" d="M 304.132812 33.394531 C 283.222656 26.476562 173.703125 42.605469 96.261719 51.074219 C 66.90625 54.285156 53.789062 60.664062 47.136719 87.617188 C 41.054688 112.273438 30.296875 205.453125 29.214844 239.230469 C 28.085938 274.578125 58.777344 275.378906 91.652344 276.914062 C 91.652344 276.914062 341.101562 282.492188 339.457031 257.910156 C 346.832031 247.464844 334.542969 43.457031 304.132812 33.394531 " fill-opacity="1" fill-rule="nonzero"/><path fill="#26b59b" d="M 90.585938 41.238281 C 90.585938 41.238281 89.433594 41.585938 87.402344 42.097656 C 86.390625 42.347656 85.160156 42.652344 83.746094 43.003906 C 82.347656 43.371094 80.773438 43.773438 79.054688 44.171875 C 77.355469 44.632812 75.511719 45.136719 73.566406 45.667969 C 71.65625 46.277344 69.597656 46.785156 67.578125 47.550781 C 67.070312 47.726562 66.554688 47.90625 66.039062 48.085938 C 65.515625 48.253906 64.996094 48.433594 64.496094 48.660156 C 63.480469 49.089844 62.457031 49.519531 61.417969 49.9375 C 60.410156 50.410156 59.433594 50.953125 58.421875 51.4375 L 57.667969 51.8125 L 56.960938 52.253906 L 55.542969 53.140625 C 55.078125 53.445312 54.5625 53.683594 54.136719 54.042969 L 52.816406 55.050781 L 51.492188 56.042969 L 50.289062 57.164062 C 48.636719 58.597656 47.257812 60.273438 45.898438 61.882812 C 45.277344 62.734375 44.679688 63.585938 44.0625 64.40625 C 43.449219 65.226562 42.996094 66.136719 42.457031 66.960938 C 41.367188 68.605469 40.589844 70.332031 39.742188 71.863281 C 39.308594 72.625 39 73.40625 38.664062 74.136719 C 38.324219 74.863281 38.003906 75.558594 37.699219 76.210938 C 37.074219 77.507812 36.628906 78.6875 36.21875 79.644531 C 35.414062 81.566406 34.894531 82.664062 34.894531 82.664062 C 34.894531 82.664062 35.007812 81.472656 35.304688 79.386719 C 35.46875 78.351562 35.59375 77.0625 35.96875 75.644531 C 36.328125 74.222656 36.601562 72.566406 37.203125 70.847656 C 37.804688 69.125 38.328125 67.199219 39.28125 65.300781 C 39.734375 64.347656 40.140625 63.332031 40.703125 62.363281 C 41.265625 61.394531 41.871094 60.417969 42.472656 59.414062 C 43.089844 58.417969 43.890625 57.515625 44.617188 56.542969 C 45.320312 55.546875 46.230469 54.707031 47.105469 53.824219 C 47.546875 53.382812 47.988281 52.941406 48.433594 52.503906 L 49.910156 51.332031 L 51.402344 50.164062 C 51.886719 49.757812 52.453125 49.476562 52.976562 49.128906 L 54.589844 48.152344 L 55.398438 47.664062 L 56.238281 47.257812 C 57.359375 46.71875 58.480469 46.1875 59.601562 45.699219 C 61.882812 44.847656 64.136719 44.03125 66.371094 43.519531 C 68.578125 42.871094 70.757812 42.570312 72.800781 42.179688 C 74.855469 41.855469 76.808594 41.6875 78.601562 41.488281 C 80.402344 41.339844 82.054688 41.273438 83.515625 41.203125 C 84.972656 41.113281 86.242188 41.171875 87.289062 41.160156 C 89.382812 41.171875 90.585938 41.238281 90.585938 41.238281 " fill-opacity="1" fill-rule="nonzero"/><path fill="#26b59b" d="M 344.777344 117.859375 C 344.777344 117.859375 344.335938 116.328125 343.660156 113.625 C 343.320312 112.273438 342.890625 110.636719 342.453125 108.753906 C 341.988281 106.875 341.472656 104.753906 340.941406 102.441406 C 339.863281 97.820312 338.605469 92.425781 337.253906 86.652344 C 335.910156 80.886719 334.472656 74.75 332.929688 68.652344 C 332.160156 65.601562 331.367188 62.558594 330.542969 59.582031 C 330.121094 58.097656 329.707031 56.625 329.296875 55.167969 C 328.855469 53.722656 328.425781 52.292969 328 50.890625 C 327.128906 48.089844 326.246094 45.398438 325.316406 42.886719 C 324.382812 40.375 323.417969 38.039062 322.441406 35.929688 C 321.460938 33.816406 320.433594 31.957031 319.421875 30.371094 C 318.417969 28.773438 317.355469 27.53125 316.425781 26.546875 C 315.453125 25.613281 314.597656 24.949219 313.964844 24.574219 C 313.316406 24.207031 312.96875 24.011719 312.96875 24.011719 C 312.96875 24.011719 313.355469 24.121094 314.078125 24.328125 C 314.789062 24.566406 315.832031 25.011719 317.027344 25.8125 C 318.175781 26.644531 319.574219 27.742188 320.867188 29.261719 C 322.1875 30.746094 323.578125 32.53125 324.839844 34.613281 C 326.132812 36.679688 327.429688 38.980469 328.585938 41.5 C 329.777344 44.007812 330.949219 46.6875 331.992188 49.515625 C 333.0625 52.332031 334.0625 55.273438 334.976562 58.292969 C 335.921875 61.304688 336.734375 64.394531 337.542969 67.484375 C 338.300781 70.585938 339.039062 73.691406 339.664062 76.769531 C 339.996094 78.304688 340.296875 79.832031 340.574219 81.34375 C 340.867188 82.851562 341.136719 84.347656 341.382812 85.820312 C 341.898438 88.761719 342.300781 91.621094 342.683594 94.328125 C 343.074219 97.035156 343.371094 99.605469 343.625 101.980469 C 343.902344 104.351562 344.078125 106.53125 344.242188 108.464844 C 344.414062 110.398438 344.503906 112.089844 344.59375 113.480469 C 344.742188 116.265625 344.777344 117.859375 344.777344 117.859375 " fill-opacity="1" fill-rule="nonzero"/><path fill="#26b59b" d="M 51.828125 284.699219 C 51.828125 284.699219 53.050781 284.59375 55.191406 284.507812 C 57.328125 284.417969 60.378906 284.328125 64.027344 284.351562 C 64.941406 284.363281 65.886719 284.339844 66.867188 284.308594 C 67.847656 284.292969 68.859375 284.277344 69.902344 284.257812 C 71.980469 284.242188 74.171875 284.238281 76.429688 284.269531 C 76.996094 284.273438 77.566406 284.28125 78.140625 284.289062 L 79.003906 284.304688 L 79.21875 284.3125 C 79.082031 284.304688 79.199219 284.308594 79.175781 284.308594 L 79.203125 284.308594 L 79.253906 284.304688 L 79.367188 284.304688 L 79.804688 284.296875 C 80.972656 284.28125 82.15625 284.269531 83.351562 284.253906 C 85.738281 284.226562 88.164062 284.25 90.589844 284.261719 C 100.285156 284.378906 109.980469 284.867188 117.242188 285.585938 C 120.878906 285.910156 123.902344 286.289062 126.019531 286.582031 C 128.136719 286.875 129.347656 287.09375 129.347656 287.09375 C 129.347656 287.09375 128.132812 287.289062 126.007812 287.527344 C 123.882812 287.769531 120.847656 288.082031 117.207031 288.320312 C 109.925781 288.871094 100.222656 289.132812 90.523438 289.023438 C 88.101562 288.980469 85.675781 288.945312 83.289062 288.867188 C 82.097656 288.820312 80.914062 288.78125 79.742188 288.738281 L 79.304688 288.71875 L 79.015625 288.710938 L 78.796875 288.695312 L 77.921875 288.625 C 77.34375 288.570312 76.769531 288.523438 76.199219 288.472656 C 73.921875 288.273438 71.722656 288.046875 69.640625 287.820312 C 67.558594 287.578125 65.582031 287.378906 63.789062 287.058594 C 60.191406 286.480469 57.199219 285.882812 55.105469 285.445312 C 53.015625 285.003906 51.828125 284.699219 51.828125 284.699219 " fill-opacity="1" fill-rule="nonzero"/><path fill="#40bea1" d="M 117.453125 267.082031 C 84.578125 265.546875 53.886719 264.75 55.019531 229.398438 C 56.101562 195.625 66.855469 102.441406 72.941406 77.785156 C 75.929688 65.675781 80.226562 57.730469 86.710938 52.347656 C 63.964844 56.039062 53.019531 63.785156 47.136719 87.617188 C 41.054688 112.273438 30.296875 205.453125 29.214844 239.230469 C 28.085938 274.578125 58.777344 275.378906 91.652344 276.914062 C 91.652344 276.914062 329 282.21875 339.125 259.664062 C 275.445312 270.613281 117.453125 267.082031 117.453125 267.082031 " fill-opacity="1" fill-rule="nonzero"/><path fill="#26b59b" d="M 207.167969 294.945312 C 203.613281 286.351562 186.863281 281.484375 176.914062 291.4375 C 172.351562 297.035156 172.609375 305.621094 176.96875 311.085938 C 189.558594 326.894531 214.816406 313.4375 207.167969 294.945312 " fill-opacity="1" fill-rule="nonzero"/><path fill="#209882" d="M 207.167969 294.945312 C 206.164062 292.519531 204.113281 290.394531 201.457031 288.808594 C 201.59375 289.070312 201.71875 289.335938 201.828125 289.601562 C 208.652344 306.105469 189.292969 318.574219 176.097656 309.851562 C 176.367188 310.277344 176.652344 310.691406 176.96875 311.085938 C 189.558594 326.894531 214.816406 313.4375 207.167969 294.945312 " fill-opacity="1" fill-rule="nonzero"/><path fill="#26b59b" d="M 179.984375 341.695312 C 182.4375 347.625 194.007812 350.988281 200.878906 344.113281 C 204.027344 340.246094 203.851562 334.320312 200.839844 330.542969 C 192.148438 319.628906 174.699219 328.917969 179.984375 341.695312 " fill-opacity="1" fill-rule="nonzero"/><path fill="#209882" d="M 200.839844 330.542969 C 199.847656 329.296875 198.738281 328.324219 197.5625 327.578125 C 199.863281 331.34375 199.777344 336.597656 196.894531 340.132812 C 192.035156 344.992188 184.832031 344.730469 180.160156 342.0625 C 182.929688 347.761719 194.152344 350.84375 200.878906 344.113281 C 204.027344 340.246094 203.851562 334.320312 200.839844 330.542969 " fill-opacity="1" fill-rule="nonzero"/></svg>