<?xml version="1.0" standalone="no"?>
<!DOCTYPE svg PUBLIC "-//W3C//DTD SVG 20010904//EN"
 "http://www.w3.org/TR/2001/REC-SVG-20010904/DTD/svg10.dtd">
<svg version="1.0" xmlns="http://www.w3.org/2000/svg"
 width="260.000000pt" height="260.000000pt" viewBox="0 0 260.000000 260.000000"
 preserveAspectRatio="xMidYMid meet">
<metadata>
Created by potrace 1.14, written by Peter Selinger 2001-2017
</metadata>
<g transform="translate(0.000000,260.000000) scale(0.100000,-0.100000)"
fill="#000000" stroke="none">
<path d="M2337 2569 c48 -52 122 -277 177 -539 3 -14 10 -45 15 -70 6 -25 10
-48 11 -52 0 -5 5 -8 11 -8 5 0 8 3 6 8 -3 4 -8 36 -11 72 -24 269 -124 557
-209 601 l-22 12 22 -24z"/>
<path d="M1938 2534 c-2 -1 -46 -5 -98 -9 -94 -6 -113 -8 -220 -19 -30 -4 -77
-9 -105 -11 -27 -3 -66 -8 -85 -10 -119 -14 -148 -18 -170 -20 -14 -1 -47 -5
-75 -9 -27 -3 -69 -8 -92 -11 -70 -8 -126 -15 -163 -20 -19 -2 -55 -7 -80 -9
-25 -3 -67 -8 -95 -11 -80 -10 -106 -13 -175 -20 -205 -23 -287 -61 -346 -161
-22 -38 -51 -120 -60 -169 -43 -255 -42 -251 -49 -315 -3 -30 -8 -66 -10 -80
-9 -58 -27 -212 -40 -337 -8 -84 -18 -180 -21 -213 -12 -124 -12 -298 0 -333
34 -93 116 -149 256 -172 157 -25 1241 -25 1565 0 28 2 93 6 145 10 52 3 109
8 125 10 17 3 48 8 70 10 102 13 123 17 160 26 90 23 123 40 137 73 21 49 17
465 -7 686 -2 19 -7 73 -10 120 -4 47 -8 92 -10 101 -2 9 -6 40 -10 70 -21
186 -42 307 -81 479 -25 106 -43 161 -80 236 -51 102 -66 109 -236 110 -76 1
-139 0 -140 -2z"/>
<path d="M407 2458 c-72 -9 -166 -47 -211 -84 -40 -34 -80 -108 -99 -181 -8
-29 -13 -53 -11 -53 1 0 19 34 39 75 60 122 136 177 300 220 116 29 109 39
-18 23z"/>
<path d="M241 526 c3 -4 21 -9 40 -11 19 -3 45 -7 59 -11 30 -7 330 -11 418
-6 62 4 75 12 29 19 -44 7 -552 15 -546 9z"/>
<path d="M1263 501 c-45 -21 -58 -38 -67 -91 -8 -42 16 -94 55 -123 84 -61
219 3 219 105 0 45 -19 78 -55 99 -48 28 -104 31 -152 10z"/>
<path d="M1277 182 c-50 -31 -53 -116 -4 -140 116 -58 212 60 113 140 -27 22
-73 22 -109 0z"/>
</g>
</svg>
